<?xml version="1.0" encoding="utf-8"?>
<!-- Generator: Adobe Illustrator 16.0.0, SVG Export Plug-In . SVG Version: 6.00 Build 0)  -->
<!DOCTYPE svg PUBLIC "-//W3C//DTD SVG 1.1//EN" "http://www.w3.org/Graphics/SVG/1.1/DTD/svg11.dtd">
<svg version="1.1" id="Layer_1" xmlns="http://www.w3.org/2000/svg" xmlns:xlink="http://www.w3.org/1999/xlink" x="0px" y="0px"
	 width="140px" height="38.5px" viewBox="0 0 140 38.5" enable-background="new 0 0 140 38.5" xml:space="preserve">
<path fill-rule="evenodd" clip-rule="evenodd" fill="#FFFFFF" d="M-50.478,95.586l0.057-0.125l1.717,3.356h-1.773h-1.712
	L-50.478,95.586z M-61.717,104.731h2.324h4.149l1.526-3.051h3.239h3.048l1.403,3.051h7.883l-8.063-12.14h-4.271h-1.224h-0.063
	h-2.194l-5.434,8.479L-61.717,104.731z M-72.397,100.338v4.332h7.086v-4.263l5.919-5.372l2.378-2.199h-2.378h-3.604l-4.64,4.086
	l-4.211-4.021h-6.285h-2.139l2.139,1.951L-72.397,100.338z M-30.149,104.731l3.719-3.051l3.791,3.051h7.626l-7.626-6.104
	l7.505-6.036h-7.689l-3.539,2.928l-3.482-2.928h-7.69l7.267,6.036l-7.574,6.104H-30.149z M-88.327,98.817h-1.712l1.712-3.176
	l0.059-0.181l1.587,3.356H-88.327z M-83.993,104.731h5.858h2.077l-2.077-3.111l-5.982-9.028h-2.746h-1.464h-1.283h-2.2l-7.813,12.14
	h6.528l1.59-3.111h3.179h2.867L-83.993,104.731z"/>
<path fill="#FFFFFF" d="M11.385,90.484c-1.739-0.562-3.904-0.89-6.252-0.89s-4.514,0.328-6.25,0.89
	c-4.633,1.488-7.813,4.58-7.813,8.15c0,5.021,6.298,9.099,14.063,9.099c7.768,0,14.061-4.077,14.061-9.099
	C19.193,95.064,16.012,91.975,11.385,90.484 M5.133,103.817c-1.159,0-2.104-2.277-2.159-5.14c0.695,0.061,1.417,0.097,2.159,0.097
	s1.464-0.036,2.162-0.097C7.238,101.54,6.292,103.817,5.133,103.817 M3.118,96.435c0.313-2.008,1.097-3.434,2.015-3.434
	c0.916,0,1.7,1.426,2.016,3.434c-0.645,0.058-1.319,0.091-2.016,0.091C4.439,96.525,3.763,96.492,3.118,96.435 M8.38,96.28
	c-0.472-3.153-1.747-5.413-3.247-5.413c-1.502,0-2.775,2.26-3.248,5.413c-2.854-0.444-4.853-1.46-4.853-2.641
	c0-1.592,3.629-2.884,8.101-2.884c4.474,0,8.1,1.292,8.1,2.884C13.232,94.82,11.235,95.836,8.38,96.28 M-6.877,98.3
	c0-1.54,0.592-2.982,1.627-4.228c-0.012,0.087-0.017,0.174-0.017,0.261c0,1.941,2.907,3.586,6.965,4.192
	c-0.001,0.144-0.003,0.292-0.003,0.442c0,3.6,0.998,6.647,2.378,7.703C-2.062,106.297-6.877,102.692-6.877,98.3 M6.194,106.671
	c1.378-1.056,2.378-4.104,2.378-7.703c0-0.15,0-0.299-0.005-0.442c4.057-0.606,6.969-2.251,6.969-4.192
	c0-0.087-0.008-0.174-0.02-0.261c1.031,1.245,1.626,2.688,1.626,4.228C17.143,102.692,12.327,106.297,6.194,106.671"/>
<polygon fill="#FFFFFF" points="34.196,92.186 23.059,92.186 23.059,94.648 27.168,94.648 27.168,105.144 30.084,105.144 
	30.084,94.648 34.196,94.648 "/>
<path fill="#FFFFFF" d="M41.715,91.799c-3.793,0-6.869,3.075-6.869,6.866c0,3.794,3.076,6.866,6.869,6.866
	c3.791,0,6.867-3.072,6.867-6.866C48.582,94.874,45.506,91.799,41.715,91.799 M45.082,100.743c-0.448,1.138-1.461,1.984-2.693,2.203
	c-0.218,0.036-0.443,0.061-0.674,0.061c-0.232,0-0.458-0.024-0.677-0.061c-1.232-0.219-2.244-1.065-2.688-2.203
	c-0.254-0.643-0.394-1.346-0.394-2.078c0-0.734,0.14-1.439,0.394-2.08c0.444-1.135,1.456-1.986,2.688-2.198
	c0.219-0.04,0.444-0.063,0.677-0.063c0.23,0,0.456,0.023,0.674,0.063c1.232,0.212,2.245,1.063,2.693,2.198
	c0.25,0.641,0.39,1.346,0.39,2.08C45.472,99.397,45.332,100.101,45.082,100.743"/>
<polygon fill="#FFFFFF" points="48.627,92.186 52.062,92.186 55.269,97.756 58.476,92.186 61.904,92.186 56.727,100.348 
	56.727,105.144 53.81,105.144 53.81,100.348 "/>
<path fill="#FFFFFF" d="M61.964,98.665c0-3.792,3.074-6.868,6.868-6.868c3.793,0,6.866,3.076,6.866,6.868s-3.073,6.867-6.866,6.867
	C65.038,105.532,61.964,102.457,61.964,98.665 M68.832,103.006c0.229,0,0.453-0.021,0.674-0.061c1.229-0.212,2.245-1.066,2.69-2.202
	c0.253-0.64,0.393-1.341,0.393-2.078c0-0.732-0.14-1.433-0.393-2.082c-0.445-1.135-1.462-1.981-2.69-2.197
	c-0.221-0.039-0.445-0.063-0.674-0.063s-0.459,0.024-0.676,0.063c-1.232,0.216-2.247,1.063-2.691,2.197
	c-0.254,0.649-0.393,1.35-0.393,2.082c0,0.737,0.139,1.438,0.393,2.078c0.444,1.136,1.459,1.99,2.691,2.202
	C68.373,102.985,68.604,103.006,68.832,103.006"/>
<path fill="#FFFFFF" d="M96.433,102.285l-5.519,0.002l-1.061,2.847h-3.24l5.245-12.957h3.628l5.252,12.957h-3.24l-1.065-2.847
	V102.285z M95.581,100.017l-1.908-5.117l-1.91,5.117H95.581z"/>
<polygon fill="#FFFFFF" points="87.467,92.186 76.333,92.186 76.333,94.648 80.443,94.648 80.443,105.144 83.359,105.144 
	83.356,94.648 87.467,94.648 "/>
<path fill="#FFFFFF" d="M43.613,23.803l0.41,0.366c-0.938,0.855-2.041,1.28-3.311,1.28c-1.363,0-2.521-0.48-3.479-1.44
	c-0.961-0.959-1.44-2.115-1.44-3.477s0.479-2.52,1.44-3.479c0.957-0.963,2.115-1.438,3.479-1.438c1.27,0,2.373,0.42,3.311,1.274
	l-0.41,0.373c-0.824-0.729-1.791-1.1-2.9-1.1c-1.203,0-2.236,0.427-3.088,1.285c-0.852,0.848-1.279,1.877-1.279,3.085
	s0.428,2.238,1.279,3.089c0.852,0.855,1.885,1.285,3.088,1.285C41.822,24.906,42.789,24.533,43.613,23.803"/>
<path fill="#FFFFFF" d="M51.256,15.724h0.545v6.908c-0.102,0.736-0.408,1.36-0.918,1.866c-0.613,0.616-1.354,0.919-2.217,0.919
	c-0.871,0-1.609-0.303-2.223-0.919c-0.611-0.611-0.92-1.348-0.92-2.212v-6.563h0.545v6.563c0,0.709,0.256,1.321,0.764,1.83
	c0.504,0.504,1.115,0.754,1.834,0.754c0.717,0,1.326-0.25,1.832-0.754c0.504-0.509,0.758-1.121,0.758-1.83V15.724z"/>
<path fill="#FFFFFF" d="M55.939,21.998C55.887,22,55.832,22,55.775,22h-1.633v3.334h-0.539v-9.61h2.52
	c0.734,0.105,1.359,0.404,1.869,0.919c0.613,0.611,0.92,1.356,0.92,2.219c0,0.866-0.307,1.607-0.92,2.222
	c-0.424,0.422-0.912,0.705-1.459,0.834l2.217,3.417h-0.666L55.939,21.998z M54.143,16.271v5.188h1.633
	c0.715,0,1.326-0.256,1.83-0.764c0.506-0.508,0.76-1.115,0.76-1.833c0-0.72-0.254-1.326-0.76-1.831
	c-0.504-0.508-1.115-0.76-1.83-0.76H54.143z"/>
<path fill="#FFFFFF" d="M67.813,23.803l0.408,0.366c-0.936,0.855-2.039,1.28-3.309,1.28c-1.363,0-2.521-0.48-3.482-1.44
	c-0.959-0.959-1.438-2.115-1.438-3.477s0.479-2.52,1.438-3.479c0.961-0.963,2.119-1.438,3.482-1.438c1.27,0,2.373,0.42,3.309,1.274
	l-0.408,0.373c-0.824-0.729-1.791-1.1-2.9-1.1c-1.203,0-2.232,0.427-3.088,1.285c-0.854,0.848-1.279,1.877-1.279,3.085
	s0.426,2.238,1.279,3.089c0.855,0.855,1.885,1.285,3.088,1.285C66.021,24.906,66.988,24.533,67.813,23.803"/>
<rect x="69.844" y="15.727" fill="#FFFFFF" width="0.539" height="9.608"/>
<path fill="#FFFFFF" d="M80.572,17.034c0.965,0.958,1.445,2.125,1.445,3.485c0,1.357-0.48,2.521-1.445,3.483
	c-0.963,0.964-2.125,1.448-3.484,1.448c-1.363,0-2.525-0.484-3.486-1.448c-0.963-0.963-1.447-2.126-1.447-3.483
	c0-1.36,0.484-2.527,1.447-3.485c0.961-0.964,2.123-1.449,3.486-1.449C78.447,15.585,79.609,16.07,80.572,17.034 M77.088,16.138
	c-1.209,0-2.242,0.43-3.098,1.282c-0.854,0.856-1.281,1.888-1.281,3.1c0,1.21,0.428,2.24,1.281,3.098
	c0.855,0.855,1.889,1.287,3.098,1.287c1.207,0,2.24-0.432,3.096-1.287c0.854-0.857,1.281-1.888,1.281-3.098
	c0-1.212-0.428-2.243-1.281-3.1C79.328,16.567,78.295,16.138,77.088,16.138"/>
<path fill="#FFFFFF" d="M91.105,23.045l0.93,0.836c-1.135,1.036-2.34,1.56-3.609,1.56c-1.355,0-2.514-0.484-3.471-1.44
	c-0.955-0.956-1.434-2.113-1.434-3.472c0-1.351,0.479-2.506,1.434-3.471c0.957-0.959,2.115-1.441,3.471-1.441
	c1.27,0,2.475,0.52,3.609,1.556l-0.93,0.851c-0.855-0.763-1.75-1.145-2.68-1.145c-1.004,0-1.865,0.355-2.58,1.068
	s-1.07,1.577-1.07,2.582c0,1.013,0.355,1.875,1.07,2.59c0.715,0.712,1.576,1.072,2.58,1.072C89.355,24.19,90.25,23.81,91.105,23.045
	"/>
<path fill="#FFFFFF" d="M96.859,15.723l3.496,9.614h-1.32l-1.238-3.402H95.25l-1.23,3.402h-1.328l3.494-9.614H96.859z M97.346,20.69
	l-0.822-2.251l-0.816,2.251H97.346z"/>
<path fill="#FFFFFF" d="M102.799,22.258v3.076h-1.242v-9.609h2.725c0.775,0.103,1.428,0.424,1.959,0.953
	c0.637,0.646,0.955,1.409,0.955,2.311c0,0.903-0.318,1.673-0.955,2.313c-0.635,0.641-1.404,0.956-2.305,0.956H102.799z
	 M102.799,16.973v4.036h1.137c0.551,0,1.025-0.194,1.42-0.594c0.396-0.39,0.592-0.868,0.592-1.427c0-0.561-0.195-1.034-0.592-1.425
	c-0.395-0.395-0.869-0.591-1.42-0.591H102.799z"/>
<rect x="108.555" y="15.727" fill="#FFFFFF" width="1.242" height="9.608"/>
<polygon fill="#FFFFFF" points="114.615,16.968 114.615,25.335 113.365,25.335 113.365,16.968 111.123,16.968 111.123,15.726 
	116.854,15.726 116.854,16.968 "/>
<path fill="#FFFFFF" d="M121.186,15.723l3.496,9.614h-1.322l-1.238-3.402h-2.547l-1.23,3.402h-1.328l3.496-9.614H121.186z
	 M121.672,20.69l-0.824-2.251l-0.816,2.251H121.672z"/>
<polygon fill="#FFFFFF" points="125.881,25.335 125.881,15.727 127.125,15.727 127.125,24.085 130.563,24.085 130.563,25.335 "/>
<path fill="#FFFFFF" d="M70.293,29.723c-0.293-0.1-0.523-0.229-0.693-0.398c-0.17-0.173-0.254-0.374-0.254-0.622
	c0-0.235,0.084-0.438,0.254-0.609s0.375-0.258,0.617-0.258c0.24,0,0.445,0.087,0.617,0.257c0.092,0.091,0.16,0.194,0.195,0.306
	l-0.211,0.084c-0.029-0.085-0.078-0.16-0.15-0.235c-0.123-0.123-0.273-0.182-0.451-0.182c-0.176,0-0.326,0.059-0.453,0.185
	c-0.123,0.123-0.188,0.277-0.188,0.453c0,0.178,0.064,0.333,0.188,0.457c0.117,0.113,0.277,0.215,0.482,0.313
	c0.33,0.105,0.607,0.271,0.832,0.497c0.238,0.235,0.357,0.524,0.357,0.857c0,0.338-0.119,0.626-0.357,0.866
	c-0.238,0.236-0.525,0.354-0.861,0.354s-0.623-0.12-0.863-0.356c-0.189-0.193-0.303-0.41-0.34-0.664l0.219-0.077
	c0.021,0.218,0.117,0.418,0.285,0.583c0.193,0.191,0.424,0.291,0.699,0.291c0.273,0,0.508-0.1,0.701-0.291
	c0.193-0.197,0.289-0.431,0.289-0.706c0-0.271-0.096-0.501-0.289-0.7C70.748,29.957,70.541,29.826,70.293,29.723"/>
<rect x="72.002" y="27.888" fill="#FFFFFF" width="0.23" height="4.114"/>
<polygon fill="#FFFFFF" points="73.055,27.886 73.313,27.886 75.424,31.545 75.424,27.886 75.656,27.886 75.656,32.001 
	75.424,32.001 73.287,28.305 73.287,32.001 73.055,32.001 "/>
<path fill="#FFFFFF" d="M79.713,31.344l0.174,0.157c-0.4,0.365-0.875,0.548-1.418,0.548c-0.582,0-1.078-0.206-1.486-0.614
	c-0.416-0.408-0.619-0.904-0.619-1.488c0-0.581,0.203-1.081,0.619-1.493c0.408-0.41,0.904-0.616,1.486-0.616
	c0.543,0,1.018,0.184,1.418,0.548l-0.174,0.159c-0.355-0.313-0.768-0.471-1.244-0.471c-0.516,0-0.955,0.182-1.318,0.547
	c-0.369,0.369-0.551,0.807-0.551,1.326c0,0.514,0.182,0.961,0.551,1.323c0.363,0.364,0.803,0.549,1.318,0.549
	C78.945,31.818,79.357,31.656,79.713,31.344"/>
<polygon fill="#FFFFFF" points="82.588,27.886 82.588,28.116 80.762,28.116 80.762,29.825 82.588,29.825 82.588,30.061 
	80.762,30.061 80.762,31.771 82.588,31.771 82.588,32.001 80.529,32.001 80.529,27.886 "/>
<polygon fill="#FFFFFF" points="86.574,27.886 86.574,32.001 86.344,32.001 86.344,28.29 86.096,28.29 86.414,27.886 "/>
<path fill="#FFFFFF" d="M90.461,30.377c-0.26,0.225-0.564,0.336-0.916,0.336c-0.391,0-0.723-0.139-0.998-0.412
	c-0.277-0.28-0.414-0.614-0.414-1.002c0-0.391,0.137-0.724,0.414-0.998c0.275-0.279,0.607-0.413,0.998-0.413
	c0.389,0,0.721,0.134,0.998,0.413c0.266,0.264,0.402,0.586,0.414,0.955h0.016c-0.018,0.602-0.164,1.097-0.438,1.48
	c-0.273,0.385-0.615,0.805-1.02,1.256c-0.021,0.027-0.047,0.056-0.068,0.08h-0.32c0.037-0.044,0.07-0.087,0.107-0.129
	c0.453-0.504,0.811-0.94,1.074-1.319C90.367,30.548,90.416,30.464,90.461,30.377 M90.371,30.122
	c0.229-0.229,0.342-0.503,0.342-0.823c0-0.322-0.113-0.599-0.342-0.822c-0.229-0.231-0.504-0.343-0.826-0.343
	s-0.598,0.111-0.826,0.343c-0.227,0.224-0.342,0.5-0.342,0.822c0,0.32,0.115,0.595,0.342,0.823c0.229,0.229,0.504,0.345,0.826,0.345
	S90.143,30.352,90.371,30.122"/>
<path fill="#FFFFFF" d="M93.303,27.887h0.229v2.683h0.396v0.229h-0.396v1.201h-0.229v-1.201h-1.699L93.303,27.887z M93.303,28.385
	l-1.297,2.185h1.297V28.385z"/>
<path fill="#FFFFFF" d="M95.1,29.163c0.086-0.025,0.182-0.054,0.289-0.074c0.109-0.021,0.215-0.029,0.318-0.029
	c0.189,0,0.371,0.03,0.543,0.088c0.387,0.133,0.676,0.375,0.865,0.732c0.119,0.221,0.176,0.445,0.176,0.68
	c0,0.142-0.021,0.289-0.066,0.433c-0.119,0.389-0.354,0.676-0.709,0.863c-0.217,0.12-0.439,0.173-0.668,0.173
	c-0.146,0-0.295-0.022-0.445-0.067c-0.309-0.095-0.553-0.264-0.727-0.498l0.166-0.187c0.145,0.217,0.355,0.366,0.633,0.451
	c0.123,0.04,0.244,0.057,0.365,0.057c0.191,0,0.377-0.049,0.561-0.142c0.295-0.161,0.492-0.4,0.594-0.721
	c0.037-0.123,0.055-0.246,0.055-0.362c0-0.198-0.049-0.384-0.145-0.568c-0.158-0.294-0.4-0.499-0.721-0.611
	c-0.141-0.049-0.291-0.07-0.459-0.07c-0.219,0-0.459,0.041-0.725,0.125l-0.186-0.164l0.475-1.302v-0.081h1.285v0.229H95.48
	L95.1,29.163z"/>
<rect x="103.496" y="30.019" fill="#FFFFFF" width="27.088" height="0.363"/>
<rect x="35.791" y="30.019" fill="#FFFFFF" width="27.09" height="0.363"/>
<path fill="#FFFFFF" d="M19.459,31.583c-6.826,0-12.381-5.549-12.381-12.379c0-6.828,5.555-12.38,12.381-12.38
	c6.828,0,12.383,5.552,12.383,12.38C31.842,26.034,26.287,31.583,19.459,31.583 M19.459,7.475c-6.467,0-11.729,5.265-11.729,11.729
	c0,6.466,5.263,11.729,11.729,11.729c6.47,0,11.731-5.264,11.731-11.729C31.19,12.739,25.929,7.475,19.459,7.475"/>
<path fill="#FFFFFF" d="M14.59,24.219c1.022,0,1.896-0.361,2.623-1.089c0.729-0.723,1.09-1.599,1.09-2.633
	c0-1.025-0.361-1.899-1.09-2.625c-0.727-0.724-1.601-1.089-2.623-1.089c-0.944,0-1.854,0.389-2.726,1.165l-0.944-0.866
	c1.154-1.051,2.379-1.583,3.67-1.583c1.381,0,2.559,0.491,3.528,1.468c0.974,0.981,1.462,2.155,1.462,3.53
	c0,1.382-0.488,2.559-1.462,3.535c-0.97,0.969-2.147,1.458-3.528,1.458c-1.291,0-2.516-0.528-3.67-1.583l0.944-0.848
	C12.736,23.831,13.646,24.219,14.59,24.219"/>
<path fill="#FFFFFF" d="M27.055,23.059l0.947,0.852c-1.156,1.051-2.381,1.581-3.672,1.581c-1.38,0-2.559-0.49-3.531-1.46
	c-0.974-0.976-1.459-2.152-1.459-3.533c0-1.377,0.485-2.551,1.459-3.53c0.973-0.974,2.151-1.468,3.531-1.468
	c1.291,0,2.516,0.531,3.672,1.583l-0.947,0.864c-0.871-0.777-1.78-1.16-2.725-1.16c-1.023,0-1.895,0.361-2.624,1.085
	c-0.728,0.724-1.089,1.6-1.089,2.626c0,1.032,0.361,1.91,1.089,2.632c0.729,0.728,1.601,1.089,2.624,1.089
	C25.274,24.219,26.184,23.83,27.055,23.059"/>
<polygon fill="#FFFFFF" points="20.055,12.059 20.053,12.059 19.516,10.572 18.979,12.059 18.971,12.059 13.741,26.402 
	14.623,26.402 17.733,17.548 19.481,12.755 21.139,17.538 24.373,26.402 25.336,26.402 "/>
<rect x="17.358" y="20.192" fill="#FFFFFF" width="4.095" height="1.256"/>
</svg>
