<?xml version="1.0" encoding="utf-8"?>
<!-- Generator: Adobe Illustrator 16.0.0, SVG Export Plug-In . SVG Version: 6.00 Build 0)  -->
<!DOCTYPE svg PUBLIC "-//W3C//DTD SVG 1.1//EN" "http://www.w3.org/Graphics/SVG/1.1/DTD/svg11.dtd">
<svg version="1.1" id="Layer_1" xmlns="http://www.w3.org/2000/svg" xmlns:xlink="http://www.w3.org/1999/xlink" x="0px" y="0px"
	 width="507.5px" height="60px" viewBox="0 0 507.5 60" enable-background="new 0 0 507.5 60" xml:space="preserve">
<path d="M289.768,29.785h-9.647c-2.944,0-6.579,0.591-8.914,4.049c-1.466,2.169-5.599,10.269-5.599,10.269h6.826l2.088-4.016h8.922
	l0.098,4.016h6.542L289.768,29.785 M275.826,37.559c0,0,1.163-2.357,1.861-3.284c1.232-1.645,2.74-1.943,4.205-1.966
	c0.903-0.019,1.377-0.019,1.377-0.019l0.127,5.269H275.826z"/>
<path d="M226.113,29.785h-9.656c-2.925,0-6.565,0.591-8.903,4.049c-1.463,2.169-5.606,10.269-5.606,10.269h6.834l2.084-4.016h8.925
	l0.079,4.016h6.549L226.113,29.785z M212.177,37.559c0,0,1.17-2.357,1.86-3.284c1.221-1.645,2.745-1.943,4.19-1.966
	c0.925-0.019,1.391-0.019,1.391-0.019l0.134,5.269H212.177z"/>
<path d="M315.805,44.104l0.471-2.513h-12.872c0,0,12.465-8.438,14.057-9.392c0.122-0.657,0.378-1.941,0.482-2.442h-23.077
	l-0.336,2.442h12.806l-14.282,9.392l-0.453,2.513H315.805z"/>
<path d="M337.348,29.769c-3.162-0.177-7.203-0.155-9.715,0c-4.268,0.271-7.08,1.229-8.197,4.892
	c-0.442,1.436-0.945,3.676-1.198,5.221c-0.556,3.371,1.327,4.091,3.591,4.223c3.436,0.193,8.523,0.234,12.035,0.107
	c3.311-0.13,5.979-1.103,7.006-4.28c0.553-1.716,0.915-3.158,1.264-5.253C342.541,32.234,341.358,29.995,337.348,29.769
	 M331.076,41.571c-1.284,0.093-3.035,0.086-4.042,0.021c-0.854-0.085-2.349-0.301-2.169-1.994c0.126-1.158,0.781-4.017,1.218-5.271
	c0.485-1.374,1.574-1.937,3.181-2.019c1.181-0.068,2.621-0.068,3.613-0.006c2.141,0.125,2.95,0.889,2.621,2.583
	c-0.379,1.888-0.686,3.115-1.193,4.506C333.75,40.924,332.417,41.477,331.076,41.571"/>
<path d="M176.781,29.769c-3.158-0.177-7.19-0.155-9.7,0c-4.269,0.271-7.082,1.229-8.196,4.892c-0.445,1.436-0.948,3.676-1.204,5.221
	c-0.551,3.371,1.329,4.091,3.592,4.223c3.424,0.193,8.534,0.234,12.034,0.107c3.307-0.13,5.984-1.103,7.002-4.28
	c0.57-1.716,0.918-3.158,1.266-5.253C181.975,32.234,180.805,29.995,176.781,29.769 M170.513,41.571
	c-1.274,0.093-3.028,0.086-4.032,0.021c-0.843-0.085-2.351-0.301-2.166-1.994c0.112-1.158,0.771-4.017,1.214-5.271
	c0.483-1.374,1.563-1.937,3.177-2.019c1.18-0.068,2.632-0.068,3.617-0.006c2.136,0.125,2.946,0.889,2.622,2.583
	c-0.389,1.888-0.693,3.115-1.193,4.506C173.193,40.924,171.857,41.477,170.513,41.571"/>
<path d="M129.826,29.769c-3.169-0.177-7.212-0.155-9.719,0c-4.272,0.271-7.081,1.229-8.192,4.892
	c-0.44,1.436-0.946,3.676-1.195,5.221c-0.571,3.371,1.314,4.091,3.595,4.223c3.421,0.193,8.508,0.234,12.018,0.107
	c3.315-0.13,5.982-1.103,7.015-4.28c0.551-1.716,0.906-3.158,1.261-5.253C135.01,32.234,133.825,29.995,129.826,29.769
	 M123.552,41.571c-1.289,0.093-3.037,0.086-4.048,0.021c-0.844-0.085-2.342-0.301-2.172-1.994c0.137-1.158,0.792-4.017,1.225-5.271
	c0.494-1.374,1.569-1.937,3.191-2.019c1.159-0.068,2.602-0.068,3.608-0.006c2.123,0.125,2.945,0.889,2.619,2.583
	c-0.374,1.888-0.669,3.115-1.189,4.506C126.232,40.924,124.887,41.477,123.552,41.571"/>
<path d="M362.249,29.769c-3.157-0.177-7.204-0.155-9.714,0c-4.262,0.271-7.082,1.229-8.193,4.892
	c-0.434,1.436-0.941,3.676-1.191,5.221c-0.566,3.371,1.325,4.091,3.586,4.223c3.43,0.193,8.526,0.234,12.033,0.107
	c3.32-0.13,5.979-1.103,7.006-4.28c0.551-1.716,0.914-3.158,1.261-5.253C367.439,32.234,366.255,29.995,362.249,29.769
	 M355.963,41.571c-1.268,0.093-3.005,0.086-4.027,0.021c-0.848-0.085-2.326-0.301-2.162-1.994c0.109-1.158,0.779-4.017,1.217-5.271
	c0.484-1.374,1.576-1.937,3.188-2.019c1.17-0.068,2.614-0.068,3.605-0.006c2.134,0.125,2.949,0.889,2.615,2.583
	c-0.373,1.888-0.67,3.115-1.188,4.506C358.662,40.924,357.318,41.477,355.963,41.571"/>
<path d="M408.074,44.042c-2.553,0-3.217-0.671-3.051-2.462c0.06-0.557,0.143-1.348,0.492-2.313c0.645-1.875,3.174-2.872,6.365-2.872
	h6.605c0,0,0.67-1.784-1.641-1.784h-8.992l0.484-2.354h11.2c4.134,0,5.498,2.269,4.927,4.987c-0.406,1.963-1.482,6.798-1.482,6.798
	H408.074z M411.378,41.649h6.038l0.656-3.088h-4.488c-1.923,0-2.852,0.385-3.137,1.345c-0.127,0.367-0.174,0.556-0.221,0.869
	C410.174,41.254,410.309,41.649,411.378,41.649"/>
<path d="M431.198,44.052c-5.253,0-5.772-2.621-5.292-4.868c0.158-0.744,0.249-1.035,0.621-2.319
	c0.962-3.382,3.131-4.596,8.218-4.596h11.151l-0.499,2.266h-8.435c-2.896,0-3.964,1.384-4.299,2.428
	c-0.287,0.9-0.445,1.515-0.521,2.067c-0.224,1.638,0.43,2.669,2.669,2.669h9.122l-0.522,2.354H431.198z"/>
<polygon points="449.047,26.881 455.262,26.881 454.619,29.959 448.409,29.959 "/>
<polygon points="451.616,44.037 454.115,32.25 448.029,32.25 445.533,44.037 "/>
<path d="M474.219,37.188c-0.493,2.268-1.493,6.857-1.493,6.857h-6.045c0,0,0.866-3.781,1.244-5.694
	c0.577-2.784,0.134-3.479-3.343-3.479h-2.301l-1.955,9.174h-6.107l2.482-11.754h10.846
	C472.422,32.291,475.021,33.252,474.219,37.188"/>
<polygon points="94.94,30.45 91.591,44.121 98.64,44.121 101.974,30.45 111.375,30.45 112.17,26.947 86.589,26.947 85.733,30.45 "/>
<polygon points="191.416,32.553 188.572,44.21 194.577,44.21 197.414,32.553 205.434,32.553 206.106,29.558 184.292,29.558 
	183.566,32.553 "/>
<polygon points="142.902,38.731 141.681,44.211 147.575,44.211 148.932,38.731 159.847,29.525 154.046,29.518 146.079,35.834 
	140.356,29.518 134.972,29.525 "/>
<path d="M474.391,50.607l1.757-3.097h5.046c5.583,0,6.302-3.248,6.302-3.248H479c-2.079,0-3.804-0.674-3.322-3.53
	c0.198-1.26,0.377-2.263,0.91-3.921c0.877-2.703,3.846-4.546,9.396-4.546c5.916,0,10.092,0.036,10.092,0.036
	s-1.139,6.534-2.332,11.003c-1.519,5.745-5.233,7.303-12.336,7.303H474.391z M487.953,41.712l1.471-6.879
	c0,0-1.136,0.024-2.045,0.037c-2.368,0.045-4.588,0.66-5.279,3.121c-0.25,0.886-0.342,1.433-0.433,2.08
	c-0.155,1.034,0.699,1.641,2.281,1.641H487.953z"/>
<path fill="#E60012" d="M406.354,30.721c-0.264,1.393-0.56,2.203-1.033,3.112c-0.84,1.712-2.569,2.66-5.016,2.974
	c-0.94,0.122-2.23,0.078-2.23,0.078l5.1,7.236h-7.547l-7.066-10.072c0,0,6.156-0.007,6.789-0.007c1.485,0,3.426-0.43,3.965-1.452
	c0.156-0.301,0.395-0.826,0.403-1.378c0.017-0.68-0.657-1.252-1.798-1.252c-1.113,0-11.063-0.003-11.063-0.003l-3.502,13.97h-7.146
	l4.479-17.408h20.479C404.991,26.519,406.787,28.439,406.354,30.721"/>
<path d="M266.208,33.867h-11.769l-1.107,3.313h5.844l-0.939,3.184H248.8c-2.056,0-2.919-0.496-2.711-1.947
	c0.229-1.632,0.859-3.028,1.411-4.538c1.128-3.073,2.766-3.863,9.589-3.863c3.604,0,10.206,0.008,10.206,0.008l1.075-3.449
	c0,0-9.718-0.012-12.263-0.012c-9.995,0-13.413,1.177-15.318,6.058c-0.649,1.658-1.615,4.718-2.045,7.238
	c-0.514,2.976,1.785,4.142,4.228,4.212c3.389,0.126,20.355,0.063,20.355,0.063L266.208,33.867z"/>
<path fill="#FFFFFF" d="M78.077,12.531l-8.566,34.086H6.789l8.57-34.086H78.077z M79.348,11.54h-1.271H15.359h-0.774l-0.187,0.75
	L5.827,46.376l-0.31,1.233h1.272h62.722h0.772l0.189-0.75l8.566-34.086L79.348,11.54z"/>
<polygon fill="#E60012" points="46.678,12.531 46.031,12.531 37.452,46.617 69.51,46.617 78.078,12.531 "/>
<polygon points="15.358,12.531 6.788,46.617 37.964,46.617 46.542,12.531 "/>
<path fill="#FFFFFF" d="M71.231,31.023c-0.263,1.394-0.55,2.192-1.01,3.11c-0.863,1.722-2.596,2.651-5.038,2.989
	c-0.958,0.117-2.238,0.076-2.238,0.076l5.106,7.256h-7.573l-7.095-10.093c0,0,6.176-0.018,6.816-0.018
	c1.481,0,3.436-0.433,3.983-1.451c0.16-0.311,0.401-0.829,0.405-1.378c0.007-0.688-0.66-1.265-1.789-1.265
	c-1.137,0-11.11-0.007-11.11-0.007l-3.514,14.019h-7.168l4.5-17.47c0,0,16.988-0.004,20.524-0.004
	C69.872,26.789,71.676,28.726,71.231,31.023"/>
<path fill="#FFFFFF" d="M38.467,34.016l-11.803,0.01l-1.114,3.312h5.868l-0.955,3.21h-9.452c-2.066,0-2.928-0.508-2.721-1.96
	c0.229-1.638,0.844-3.032,1.403-4.562c1.14-3.078,2.781-3.863,9.616-3.863c3.631,0,10.235,0.007,10.235,0.007l1.086-3.465
	c0,0-9.757-0.007-12.291-0.007c-10.023,0-13.454,1.176-15.369,6.073c-0.648,1.663-1.622,4.735-2.053,7.262
	c-0.512,2.979,1.79,4.143,4.244,4.23c3.393,0.111,20.415,0.048,20.415,0.048L38.467,34.016z"/>
</svg>
