<?xml version="1.0" encoding="utf-8"?>
<!-- Generator: Adobe Illustrator 16.0.0, SVG Export Plug-In . SVG Version: 6.00 Build 0)  -->
<!DOCTYPE svg PUBLIC "-//W3C//DTD SVG 1.1//EN" "http://www.w3.org/Graphics/SVG/1.1/DTD/svg11.dtd">
<svg version="1.1" id="Layer_1" xmlns="http://www.w3.org/2000/svg" xmlns:xlink="http://www.w3.org/1999/xlink" x="0px" y="0px"
	 width="210.667px" height="23.25px" viewBox="0 0 210.667 23.25" enable-background="new 0 0 210.667 23.25" xml:space="preserve">
<path fill-rule="evenodd" clip-rule="evenodd" fill="#FFFFFF" d="M52.189,9.086l0.057-0.125l1.717,3.356h-1.773h-1.712L52.189,9.086
	z M40.95,18.231h2.324h4.149l1.526-3.051h3.239h3.048l1.403,3.051h7.883L56.46,6.092h-4.271h-1.224h-0.063h-2.194l-5.434,8.479
	L40.95,18.231z M30.269,13.838v4.332h7.086v-4.263l5.919-5.372l2.378-2.199h-2.378h-3.604l-4.64,4.086L30.819,6.4h-6.285h-2.139
	l2.139,1.951L30.269,13.838z M72.517,18.231l3.719-3.051l3.791,3.051h7.626l-7.626-6.104l7.505-6.036h-7.689L76.303,9.02
	l-3.482-2.928h-7.69l7.267,6.036l-7.574,6.104H72.517z M14.339,12.317h-1.712l1.712-3.176l0.059-0.181l1.587,3.356H14.339z
	 M18.673,18.231h5.858h2.077l-2.077-3.111l-5.982-9.028h-2.746h-1.464h-1.283h-2.2l-7.813,12.14h6.528l1.59-3.111h3.179h2.867
	L18.673,18.231z"/>
<path fill="#FFFFFF" d="M114.051,3.984c-1.739-0.562-3.904-0.89-6.252-0.89s-4.514,0.328-6.25,0.89
	c-4.633,1.488-7.813,4.58-7.813,8.15c0,5.021,6.298,9.099,14.063,9.099c7.768,0,14.061-4.077,14.061-9.099
	C121.86,8.564,118.678,5.475,114.051,3.984 M107.799,17.317c-1.159,0-2.104-2.277-2.159-5.14c0.695,0.061,1.417,0.097,2.159,0.097
	s1.464-0.036,2.162-0.097C109.905,15.04,108.958,17.317,107.799,17.317 M105.785,9.935c0.313-2.008,1.097-3.434,2.015-3.434
	c0.916,0,1.7,1.426,2.016,3.434c-0.645,0.058-1.319,0.091-2.016,0.091C107.106,10.025,106.429,9.992,105.785,9.935 M111.046,9.78
	c-0.472-3.153-1.747-5.413-3.247-5.413c-1.502,0-2.775,2.26-3.248,5.413c-2.854-0.444-4.853-1.46-4.853-2.641
	c0-1.592,3.629-2.884,8.101-2.884c4.474,0,8.1,1.292,8.1,2.884C115.899,8.32,113.902,9.336,111.046,9.78 M95.79,11.8
	c0-1.54,0.592-2.982,1.627-4.228C97.405,7.659,97.4,7.746,97.4,7.833c0,1.941,2.907,3.586,6.965,4.192
	c-0.001,0.144-0.003,0.292-0.003,0.442c0,3.6,0.998,6.647,2.378,7.703C100.605,19.797,95.79,16.192,95.79,11.8 M108.861,20.171
	c1.378-1.056,2.378-4.104,2.378-7.703c0-0.15,0-0.299-0.005-0.442c4.057-0.606,6.969-2.251,6.969-4.192
	c0-0.087-0.008-0.174-0.02-0.261c1.031,1.245,1.626,2.688,1.626,4.228C119.809,16.192,114.994,19.797,108.861,20.171"/>
<polygon fill="#FFFFFF" points="136.863,5.686 125.725,5.686 125.725,8.148 129.834,8.148 129.834,18.644 132.75,18.644 
	132.75,8.148 136.863,8.148 "/>
<path fill="#FFFFFF" d="M144.381,5.299c-3.793,0-6.869,3.075-6.869,6.866c0,3.794,3.076,6.866,6.869,6.866
	c3.791,0,6.867-3.072,6.867-6.866C151.249,8.374,148.172,5.299,144.381,5.299 M147.749,14.243c-0.448,1.138-1.461,1.984-2.693,2.203
	c-0.218,0.036-0.443,0.061-0.674,0.061c-0.232,0-0.458-0.024-0.677-0.061c-1.232-0.219-2.244-1.065-2.688-2.203
	c-0.254-0.643-0.394-1.346-0.394-2.078c0-0.734,0.14-1.439,0.394-2.08c0.444-1.135,1.456-1.986,2.688-2.198
	c0.219-0.04,0.444-0.063,0.677-0.063c0.23,0,0.456,0.023,0.674,0.063c1.232,0.212,2.245,1.063,2.693,2.198
	c0.25,0.641,0.39,1.346,0.39,2.08C148.138,12.897,147.999,13.601,147.749,14.243"/>
<polygon fill="#FFFFFF" points="151.293,5.686 154.728,5.686 157.935,11.256 161.142,5.686 164.571,5.686 159.393,13.848 
	159.393,18.644 156.476,18.644 156.476,13.848 "/>
<path fill="#FFFFFF" d="M164.63,12.165c0-3.792,3.074-6.868,6.868-6.868c3.793,0,6.866,3.076,6.866,6.868s-3.073,6.867-6.866,6.867
	C167.705,19.032,164.63,15.957,164.63,12.165 M171.499,16.506c0.229,0,0.453-0.021,0.674-0.061c1.229-0.212,2.245-1.066,2.69-2.202
	c0.253-0.64,0.393-1.341,0.393-2.078c0-0.732-0.14-1.433-0.393-2.082c-0.445-1.135-1.462-1.981-2.69-2.197
	c-0.221-0.039-0.445-0.063-0.674-0.063s-0.459,0.024-0.676,0.063c-1.232,0.216-2.247,1.063-2.691,2.197
	c-0.254,0.649-0.393,1.35-0.393,2.082c0,0.737,0.139,1.438,0.393,2.078c0.444,1.136,1.459,1.99,2.691,2.202
	C171.04,16.485,171.27,16.506,171.499,16.506"/>
<path fill="#FFFFFF" d="M199.099,15.785l-5.519,0.002l-1.061,2.847h-3.24l5.245-12.957h3.628l5.252,12.957h-3.24l-1.065-2.847
	V15.785z M198.248,13.517l-1.908-5.117l-1.91,5.117H198.248z"/>
<polygon fill="#FFFFFF" points="190.133,5.686 179,5.686 179,8.148 183.11,8.148 183.11,18.644 186.026,18.644 186.023,8.148 
	190.133,8.148 "/>
</svg>
