<?xml version="1.0" encoding="utf-8"?>
<!-- Generator: Adobe Illustrator 16.0.0, SVG Export Plug-In . SVG Version: 6.00 Build 0)  -->
<!DOCTYPE svg PUBLIC "-//W3C//DTD SVG 1.1//EN" "http://www.w3.org/Graphics/SVG/1.1/DTD/svg11.dtd">
<svg version="1.1" id="Layer_1" xmlns="http://www.w3.org/2000/svg" xmlns:xlink="http://www.w3.org/1999/xlink" x="0px" y="0px"
	 width="47.875px" height="30.875px" viewBox="0 0 47.875 30.875" enable-background="new 0 0 47.875 30.875" xml:space="preserve">
<g>
	<defs>
		<rect id="SVGID_1_" x="1.868" y="1.132" width="44.442" height="28.742"/>
	</defs>
	<clipPath id="SVGID_2_">
		<use xlink:href="#SVGID_1_"  overflow="visible"/>
	</clipPath>
	<path clip-path="url(#SVGID_2_)" fill="#FFFFFF" d="M24.089,1.133c-12.272,0-22.222,6.434-22.222,14.371
		c0,7.938,9.949,14.371,22.222,14.371s22.222-6.434,22.222-14.371C46.311,7.567,36.361,1.133,24.089,1.133 M24.089,23.706
		c-1.824,0-3.314-3.593-3.411-8.117c1.101,0.099,2.241,0.151,3.411,0.151s2.311-0.053,3.411-0.151
		C27.403,20.113,25.913,23.706,24.089,23.706 M20.906,12c0.497-3.197,1.734-5.462,3.183-5.462S26.774,8.803,27.271,12
		c-1.018,0.093-2.084,0.141-3.183,0.141S21.924,12.093,20.906,12 M24.089,3.213c-2.386,0-4.416,3.567-5.166,8.545
		c-4.52-0.706-7.674-2.309-7.674-4.174c0-2.516,5.749-4.556,12.84-4.556s12.84,2.04,12.84,4.556c0,1.865-3.154,3.468-7.674,4.174
		C28.505,6.78,26.475,3.213,24.089,3.213 M5.053,14.965c0-2.436,0.937-4.719,2.571-6.682C7.605,8.421,7.596,8.56,7.596,8.699
		c0,3.07,4.604,5.681,11.023,6.644c-0.005,0.224-0.007,0.447-0.007,0.673c0,5.721,1.604,10.563,3.818,12.205
		C12.694,27.634,5.053,21.923,5.053,14.965 M25.747,28.221c2.215-1.642,3.818-6.484,3.818-12.205c0-0.226-0.003-0.449-0.007-0.673
		c6.42-0.963,11.023-3.574,11.023-6.644c0-0.139-0.01-0.278-0.028-0.416c1.634,1.963,2.571,4.246,2.571,6.682
		C43.125,21.923,35.483,27.634,25.747,28.221"/>
</g>
</svg>
