<?xml version="1.0" encoding="utf-8"?>
<!-- Generator: Adobe Illustrator 16.0.0, SVG Export Plug-In . SVG Version: 6.00 Build 0)  -->
<!DOCTYPE svg PUBLIC "-//W3C//DTD SVG 1.1//EN" "http://www.w3.org/Graphics/SVG/1.1/DTD/svg11.dtd">
<svg version="1.1" id="Layer_1" xmlns="http://www.w3.org/2000/svg" xmlns:xlink="http://www.w3.org/1999/xlink" x="0px" y="0px"
	 width="92.934px" height="24.75px" viewBox="0 0 92.934 24.75" enable-background="new 0 0 92.934 24.75" xml:space="preserve">
<path fill="#FFFFFF" d="M69.692,14.72c-0.912,0.276-1.848,0.36-2.862,0.35c0.117-0.833,0.226-1.616,0.336-2.399
	s0.238-1.565,0.333-2.352c0.04-0.326,0.146-0.456,0.505-0.44c0.78,0.034,1.562,0.024,2.343,0.007c0.848-0.017,1.557,0.23,1.945,1.03
	c0.395,0.816,0.221,1.598-0.29,2.307C71.43,14.015,70.606,14.441,69.692,14.72 M58.284,11.84c-0.122,0.779-0.227,1.451-0.333,2.123
	c-0.134,0.841-0.274,1.682-0.402,2.523c-0.03,0.206-0.093,0.328-0.319,0.391c-1.887,0.535-5.726,1.63-5.816,1.63
	C53.479,16.065,55.582,13.724,58.284,11.84 M91.934,10.477c-0.064-0.508-0.135-0.975-0.179-1.444
	c-0.021-0.221-0.114-0.29-0.325-0.328c-1.592-0.291-3.194-0.427-4.811-0.338c-1.009,0.055-2.002,0.213-2.919,0.676
	c-0.849,0.428-1.431,1.069-1.625,2.029c-0.204,1.006,0.082,1.899,0.698,2.66c0.67,0.825,1.438,1.571,2.145,2.366
	c0.533,0.602,1.098,1.188,1.538,1.854c0.628,0.944,0.462,2.038-0.382,2.797c-0.371,0.334-0.814,0.639-1.278,0.813
	c-3.354,1.259-6.51,0.901-9.312-1.396c-0.99-0.813-1.807-1.839-2.693-2.777c-0.516-0.547-1.013-1.111-1.544-1.695
	c0.331-0.139,0.615-0.254,0.896-0.377c1-0.442,1.965-0.93,2.736-1.741c1.133-1.191,1.327-3.757-1.027-4.729
	c-0.959-0.397-1.965-0.537-2.985-0.543c-1.847-0.013-5.593-0.016-5.706-0.008c-0.092,0.549-0.196,1.114-0.285,1.662
	c-0.294,1.798-0.589,3.598-0.875,5.396c-0.038,0.235-0.123,0.328-0.377,0.354c-0.6,0.059-1.195,0.165-1.792,0.255
	c-0.472,0.073-0.944,0.15-1.444,0.23c0.039-0.267,0.068-0.476,0.102-0.686c0.335-2.163,0.673-4.326,1.006-6.491
	c0.057-0.365-0.075-0.575-0.432-0.656c-0.467-0.106-0.924-0.072-1.323,0.222c-1.183,0.871-2.377,1.727-3.533,2.633
	c-3.769,2.951-7.29,6.166-10.359,9.854c-0.515,0.615-1.573,1.982-1.573,1.982s2.066-0.01,3.354,0.008
	c0.242,0.004,0.386-0.109,0.474-0.181c0.531-0.434,1.025-0.919,1.59-1.301c2.158-1.461,4.58-2.296,7.087-2.916
	c0.129-0.032,0.262-0.048,0.427-0.078c-0.24,1.511-0.473,2.968-0.711,4.472c0.869,0,1.65,0.008,2.504,0
	c0.016,0,0.127,0.004,0.208-0.06c0.065-0.052,0.103-0.165,0.108-0.21c0.246-1.488,0.49-2.99,0.723-4.486
	c0.036-0.229,0.118-0.341,0.371-0.373c0.515-0.063,1.025-0.174,1.539-0.262c0.554-0.096,1.107-0.189,1.714-0.292
	c-0.313,1.92-0.617,3.782-0.927,5.685c0.902,0,1.666-0.002,2.578-0.002c0.08,0,0.15-0.045,0.195-0.098
	c0.037-0.045,0.061-0.107,0.067-0.15c0.198-1.213,0.383-2.432,0.571-3.647c0.121-0.792,0.246-1.583,0.375-2.401
	c0.388,0,0.742,0.006,1.095-0.001c0.659-0.011,1.171,0.234,1.601,0.755c0.799,0.97,1.646,1.898,2.473,2.843
	c1.564,1.784,3.518,2.834,5.871,3.159c2.521,0.349,5.033,0.306,7.539-0.102c1.303-0.211,2.573-0.541,3.709-1.254
	c1.627-1.021,2.084-2.628,1.11-4.28c-0.425-0.723-1.024-1.355-1.604-1.975c-0.672-0.717-1.422-1.358-2.109-2.06
	c-0.458-0.467-0.832-1.004-1.004-1.652c-0.278-1.043,0.105-1.74,1.13-2.053c0.113-0.035,0.229-0.06,0.347-0.082
	c1.219-0.234,2.43-0.08,3.637,0.11C90.846,10.25,91.372,10.368,91.934,10.477"/>
<path fill="#FFFFFF" d="M37.632,23.058c1.465-1.776,2.866-3.474,4.283-5.191c-2.815-2.58-4.999-5.514-5.276-9.543h3.869
	c0.064,2.865,1.067,5.352,3.171,7.422c0.261-0.27,0.504-0.521,0.748-0.773c2.182-2.243,4.418-4.428,6.806-6.452
	c0.152-0.129,0.396-0.212,0.598-0.214c1.357-0.011,2.699-0.009,4.154-0.009c-0.151,0.123-0.234,0.191-0.319,0.257
	c-3.519,2.707-6.839,5.632-9.856,8.893c-1.547,1.671-2.987,3.428-4.238,5.336c-0.037,0.057-0.095,0.125-0.158,0.177
	c-0.063,0.054-0.177,0.093-0.234,0.093C39.993,23.052,38.903,23.058,37.632,23.058"/>
<path fill="#FFFFFF" d="M78.993,21.63c-0.922-0.245-1.748-0.613-2.5-1.125c-0.022-0.016-0.037-0.021-0.088-0.067
	c-0.115-0.103-0.086-0.272-0.066-0.416c0.211-1.537,0.436-3.071,0.656-4.604c0.156-1.078,0.312-2.156,0.469-3.233
	c0.018-0.128,0.044-0.254,0.068-0.393h2.594C79.747,15.074,79.372,18.335,78.993,21.63"/>
<path fill="#FFFFFF" d="M80.231,9.763c0.001,0.786-0.646,1.433-1.425,1.422c-0.757-0.01-1.397-0.663-1.396-1.422
	c0.002-0.773,0.627-1.403,1.398-1.409C79.61,8.349,80.23,8.963,80.231,9.763"/>
<polyline fill="#FFFFFF" points="5.533,7.866 1.605,23.486 29.895,23.486 33.822,7.866 "/>
<polyline fill="#D22F28" points="19.541,8.28 19.256,8.28 15.535,23.072 29.442,23.072 33.165,8.28 "/>
<polyline fill="#161818" points="5.947,8.28 2.228,23.072 15.759,23.072 19.478,8.28 "/>
<path fill="#FFFFFF" d="M30.194,16.301c-0.116,0.607-0.243,0.955-0.442,1.353c-0.374,0.746-1.126,1.154-2.185,1.294
	c-0.416,0.056-0.971,0.038-0.971,0.038l2.216,3.147h-3.287l-3.077-4.379c0,0,2.678-0.008,2.959-0.008
	c0.643,0,1.489-0.19,1.726-0.631c0.073-0.132,0.169-0.359,0.174-0.599c0.004-0.295-0.288-0.549-0.776-0.549
	c-0.494,0-4.819-0.002-4.819-0.002l-1.525,6.08h-3.112l1.952-7.575c0,0,7.375-0.003,8.91-0.003
	C29.604,14.468,30.383,15.307,30.194,16.301"/>
<path fill="#FFFFFF" d="M15.975,17.604l-5.123,0.003l-0.48,1.438h2.545l-0.416,1.39H8.401c-0.898,0-1.274-0.219-1.184-0.847
	c0.104-0.713,0.367-1.317,0.611-1.979c0.495-1.336,1.205-1.676,4.173-1.676c1.574,0,4.443,0.001,4.443,0.001l0.468-1.506
	c0,0-4.232-0.003-5.337-0.003c-4.347,0-5.834,0.511-6.665,2.637c-0.284,0.722-0.704,2.056-0.892,3.15
	c-0.222,1.296,0.781,1.798,1.844,1.834c1.47,0.052,8.854,0.026,8.854,0.026"/>
<text transform="matrix(1 0 0 1 36.6392 3.6392)"><tspan x="0" y="0" fill="#FFFFFF" font-family="'ToyotaType-Bold'" font-size="3.7477" letter-spacing="1">NUE</tspan><tspan x="10.669" y="0" fill="#FFFFFF" font-family="'ToyotaType-Bold'" font-size="3.7477" letter-spacing="1">V</tspan><tspan x="14.005" y="0" fill="#FFFFFF" font-family="'ToyotaType-Bold'" font-size="3.7477">O</tspan></text>
</svg>
